<svg width="40" height="37" viewBox="0 0 40 37" fill="none" xmlns="http://www.w3.org/2000/svg">
<path d="M36.917 15.2471H10.449L20.5922 5.08843C21.0973 4.49864 21.3613 3.73998 21.3313 2.96405C21.3013 2.18812 20.9797 1.45208 20.4306 0.903004C19.8815 0.353931 19.1455 0.03227 18.3695 0.00229928C17.5936 -0.0276715 16.8349 0.236256 16.2452 0.741339L0.829945 16.1566C0.68411 16.301 0.55485 16.4613 0.444565 16.6344C0.392709 16.708 0.346338 16.7853 0.305828 16.8657L0.151676 17.174L0.0591844 17.4823C0.0503224 17.5694 0.0503224 17.6572 0.0591844 17.7443C-0.0197281 18.1412 -0.0197281 18.5498 0.0591844 18.9467C0.0503224 19.0338 0.0503224 19.1216 0.0591844 19.2088L0.151676 19.5171C0.151676 19.625 0.259582 19.7175 0.305828 19.8254C0.346338 19.9057 0.392709 19.983 0.444565 20.0566C0.55485 20.2297 0.68411 20.39 0.829945 20.5345L16.2452 35.9497C16.8349 36.4548 17.5936 36.7187 18.3695 36.6887C19.1455 36.6588 19.8815 36.3371 20.4306 35.788C20.9797 35.2389 21.3013 34.5029 21.3313 33.727C21.3613 32.951 21.0973 32.1924 20.5922 31.6026L10.449 21.4131H36.917C37.7346 21.4131 38.5188 21.0883 39.097 20.5101C39.6752 19.932 40 19.1478 40 18.3301C40 17.5124 39.6752 16.7282 39.097 16.1501C38.5188 15.5719 37.7346 15.2471 36.917 15.2471Z" fill="white"/>
</svg>
