<svg width="40" height="35" viewBox="0 0 40 35" fill="none" xmlns="http://www.w3.org/2000/svg">
<path d="M39.913 7.71263L35.2609 23.6584C34.913 24.794 34 25.551 32.913 25.551H14.9565C13.913 25.551 12.913 24.8413 12.5652 23.8003L5.69565 3.78534H1.73913C0.782609 3.78534 0 2.93364 0 1.89267C0 0.851701 0.782609 0 1.73913 0H6.91304C7.65217 0 8.30435 0.520484 8.56522 1.27755L15.6522 21.7657H32.1739L35.8696 8.99018H15.3913C14.4348 8.99018 13.6522 8.13848 13.6522 7.09751C13.6522 6.05654 14.4348 5.20484 15.3913 5.20484H38.2609C38.8261 5.20484 39.3478 5.53606 39.6522 6.00923C40 6.48239 40.087 7.14483 39.913 7.71263ZM15.8261 28.0588C15.087 28.0588 14.3478 28.39 13.8261 28.9578C13.3043 29.5256 13 30.33 13 31.1344C13 31.9388 13.3043 32.7432 13.8261 33.311C14.3478 33.8788 15.087 34.21 15.8261 34.21C16.5652 34.21 17.3043 33.8788 17.8261 33.311C18.3478 32.7432 18.6522 31.9388 18.6522 31.1344C18.6522 30.33 18.3478 29.5256 17.8261 28.9578C17.3043 28.39 16.5652 28.0588 15.8261 28.0588ZM31.4348 28.0588C30.6957 28.0588 29.9565 28.39 29.4348 28.9578C28.913 29.5256 28.6087 30.33 28.6087 31.1344C28.6087 31.9388 28.913 32.7432 29.4348 33.311C29.9565 33.8788 30.6957 34.21 31.4348 34.21C32.1739 34.21 32.913 33.8788 33.4348 33.311C33.9565 32.7432 34.2609 31.9388 34.2609 31.1344C34.2609 30.33 33.9565 29.5256 33.4348 28.9578C32.913 28.39 32.1739 28.0588 31.4348 28.0588Z" fill="white"/>
</svg>
