<svg width="14" height="12" viewBox="0 0 14 12" fill="none" xmlns="http://www.w3.org/2000/svg">
<path d="M10 4C10 3.86458 9.95052 3.7474 9.85156 3.64844C9.7526 3.54948 9.63542 3.5 9.5 3.5H8.5V2.5C8.5 2.36458 8.45052 2.2474 8.35156 2.14844C8.2526 2.04948 8.13542 2 8 2C7.86458 2 7.7474 2.04948 7.64844 2.14844C7.54948 2.2474 7.5 2.36458 7.5 2.5V3.5H6.5C6.36458 3.5 6.2474 3.54948 6.14844 3.64844C6.04948 3.7474 6 3.86458 6 4C6 4.13542 6.04948 4.2526 6.14844 4.35156C6.2474 4.45052 6.36458 4.5 6.5 4.5H7.5V5.5C7.5 5.63542 7.54948 5.7526 7.64844 5.85156C7.7474 5.95052 7.86458 6 8 6C8.13542 6 8.2526 5.95052 8.35156 5.85156C8.45052 5.7526 8.5 5.63542 8.5 5.5V4.5H9.5C9.63542 4.5 9.7526 4.45052 9.85156 4.35156C9.95052 4.2526 10 4.13542 10 4ZM5.5 10.5C5.5 10.776 5.40234 11.0117 5.20703 11.207C5.01172 11.4023 4.77604 11.5 4.5 11.5C4.22396 11.5 3.98828 11.4023 3.79297 11.207C3.59766 11.0117 3.5 10.776 3.5 10.5C3.5 10.224 3.59766 9.98828 3.79297 9.79297C3.98828 9.59766 4.22396 9.5 4.5 9.5C4.77604 9.5 5.01172 9.59766 5.20703 9.79297C5.40234 9.98828 5.5 10.224 5.5 10.5ZM12.5 10.5C12.5 10.776 12.4023 11.0117 12.207 11.207C12.0117 11.4023 11.776 11.5 11.5 11.5C11.224 11.5 10.9883 11.4023 10.793 11.207C10.5977 11.0117 10.5 10.776 10.5 10.5C10.5 10.224 10.5977 9.98828 10.793 9.79297C10.9883 9.59766 11.224 9.5 11.5 9.5C11.776 9.5 12.0117 9.59766 12.207 9.79297C12.4023 9.98828 12.5 10.224 12.5 10.5ZM13.5 2V6C13.5 6.125 13.4583 6.23568 13.375 6.33203C13.2917 6.42839 13.1849 6.48438 13.0547 6.5L4.89844 7.45313C4.90365 7.48958 4.91536 7.54557 4.93359 7.62109C4.95182 7.69662 4.96745 7.76563 4.98047 7.82813C4.99349 7.89063 5 7.94792 5 8C5 8.08333 4.9375 8.25 4.8125 8.5H12C12.1354 8.5 12.2526 8.54948 12.3516 8.64844C12.4505 8.7474 12.5 8.86458 12.5 9C12.5 9.13542 12.4505 9.25261 12.3516 9.35156C12.2526 9.45052 12.1354 9.5 12 9.5H4C3.86458 9.5 3.7474 9.45052 3.64844 9.35156C3.54948 9.25261 3.5 9.13542 3.5 9C3.5 8.92708 3.52865 8.82422 3.58594 8.69141C3.64323 8.55859 3.72005 8.40365 3.81641 8.22656C3.91276 8.04948 3.96615 7.95052 3.97656 7.92969L2.59375 1.5H1C0.864583 1.5 0.747396 1.45052 0.648438 1.35156C0.549479 1.2526 0.5 1.13542 0.5 1C0.5 0.864583 0.549479 0.747396 0.648438 0.648438C0.747396 0.549479 0.864583 0.5 1 0.5H3C3.08333 0.5 3.15755 0.516927 3.22266 0.550781C3.28776 0.584635 3.33984 0.625 3.37891 0.671875C3.41797 0.71875 3.45182 0.782552 3.48047 0.863281C3.50911 0.94401 3.52865 1.01302 3.53906 1.07031C3.54948 1.1276 3.5638 1.20443 3.58203 1.30078C3.60026 1.39714 3.61198 1.46354 3.61719 1.5H13C13.1354 1.5 13.2526 1.54948 13.3516 1.64844C13.4505 1.7474 13.5 1.86458 13.5 2Z" fill="white"/>
</svg>
