<svg width="15" height="14" viewBox="0 0 15 14" fill="none" xmlns="http://www.w3.org/2000/svg">
<path d="M14.175 0H0.825C0.606196 0 0.396354 0.0760545 0.241637 0.211432C0.0869195 0.34681 0 0.530422 0 0.721875V12.4031C0 12.4979 0.0213393 12.5918 0.0627995 12.6794C0.10426 12.767 0.165029 12.8465 0.241637 12.9136C0.318245 12.9806 0.409193 13.0338 0.509286 13.0701C0.60938 13.1063 0.716659 13.125 0.825 13.125H8.01V8.03906H6.06V6.07031H8.01V4.59375C7.96961 4.24709 8.01638 3.8969 8.14704 3.56773C8.27769 3.23856 8.48907 2.93839 8.76635 2.68827C9.04362 2.43815 9.38008 2.24414 9.75212 2.11984C10.1242 1.99555 10.5228 1.94398 10.92 1.96875C11.5037 1.96561 12.0872 1.9919 12.6675 2.0475V3.81938H11.475C10.53 3.81938 10.35 4.21312 10.35 4.78406V6.05063H12.6L12.3075 8.01937H10.35V13.125H14.175C14.2833 13.125 14.3906 13.1063 14.4907 13.0701C14.5908 13.0338 14.6818 12.9806 14.7584 12.9136C14.835 12.8465 14.8957 12.767 14.9372 12.6794C14.9787 12.5918 15 12.4979 15 12.4031V0.721875C15 0.627077 14.9787 0.533207 14.9372 0.445625C14.8957 0.358044 14.835 0.278465 14.7584 0.211432C14.6818 0.1444 14.5908 0.0912271 14.4907 0.0549495C14.3906 0.0186719 14.2833 0 14.175 0Z" fill="#1F7CC0"/>
</svg>
