<svg width="15" height="14" viewBox="0 0 15 14" fill="none" xmlns="http://www.w3.org/2000/svg">
<path d="M11.505 2.27063C11.327 2.27063 11.153 2.31681 11.005 2.40334C10.857 2.48987 10.7416 2.61286 10.6735 2.75676C10.6054 2.90066 10.5876 3.059 10.6223 3.21176C10.657 3.36452 10.7427 3.50484 10.8686 3.61497C10.9945 3.72511 11.1548 3.80011 11.3294 3.83049C11.504 3.86088 11.685 3.84528 11.8494 3.78568C12.0139 3.72608 12.1544 3.62514 12.2533 3.49564C12.3522 3.36613 12.405 3.21388 12.405 3.05813C12.405 2.84927 12.3102 2.64896 12.1414 2.50128C11.9726 2.35359 11.7437 2.27063 11.505 2.27063ZM14.955 3.85875C14.9404 3.31426 14.8239 2.77555 14.61 2.26406C14.4193 1.82643 14.1225 1.43015 13.74 1.1025C13.3686 0.766123 12.9147 0.508053 12.4125 0.347812C11.8295 0.154981 11.2131 0.0506691 10.59 0.039375C9.795 -3.66708e-08 9.54 0 7.5 0C5.46 0 5.205 -3.66708e-08 4.41 0.039375C3.78686 0.0506691 3.17051 0.154981 2.5875 0.347812C2.08626 0.509676 1.6327 0.767524 1.26 1.1025C0.875569 1.42746 0.580632 1.82466 0.3975 2.26406C0.177121 2.77419 0.0579075 3.31351 0.045 3.85875C-4.19095e-08 4.55438 0 4.7775 0 6.5625C0 8.3475 -4.19095e-08 8.57063 0.045 9.26625C0.0579075 9.81149 0.177121 10.3508 0.3975 10.8609C0.580632 11.3003 0.875569 11.6975 1.26 12.0225C1.6327 12.3575 2.08626 12.6153 2.5875 12.7772C3.17051 12.97 3.78686 13.0743 4.41 13.0856C5.205 13.125 5.46 13.125 7.5 13.125C9.54 13.125 9.795 13.125 10.59 13.0856C11.2131 13.0743 11.8295 12.97 12.4125 12.7772C12.9147 12.6169 13.3686 12.3589 13.74 12.0225C14.1242 11.6961 14.4213 11.2994 14.61 10.8609C14.8239 10.3495 14.9404 9.81074 14.955 9.26625C14.955 8.57063 15 8.3475 15 6.5625C15 4.7775 15 4.55438 14.955 3.85875ZM13.605 9.1875C13.5995 9.60407 13.5133 10.0168 13.35 10.4081C13.2302 10.6937 13.0379 10.9518 12.7875 11.1628C12.5442 11.3797 12.2499 11.5477 11.925 11.655C11.4778 11.7979 11.0061 11.8733 10.53 11.8781C9.78 11.9109 9.5025 11.9175 7.53 11.9175C5.5575 11.9175 5.28 11.9175 4.53 11.8781C4.03567 11.8862 3.54345 11.8196 3.075 11.6812C2.76434 11.5684 2.48352 11.4009 2.25 11.1891C2.00107 10.9782 1.81113 10.72 1.695 10.4344C1.51189 10.0374 1.41033 9.61534 1.395 9.1875C1.395 8.53125 1.35 8.28844 1.35 6.5625C1.35 4.83656 1.35 4.59375 1.395 3.9375C1.39836 3.51163 1.48721 3.08959 1.6575 2.69062C1.78954 2.41363 1.9922 2.16671 2.25 1.96875C2.47786 1.74311 2.75947 1.56391 3.075 1.44375C3.53216 1.2994 4.014 1.22396 4.5 1.22062C5.25 1.22062 5.5275 1.18125 7.5 1.18125C9.4725 1.18125 9.75 1.18125 10.5 1.22062C10.9761 1.2254 11.4478 1.30085 11.895 1.44375C12.2358 1.55443 12.5417 1.73437 12.7875 1.96875C13.0333 2.17034 13.2253 2.41679 13.35 2.69062C13.5167 3.09024 13.603 3.51211 13.605 3.9375C13.6425 4.59375 13.65 4.83656 13.65 6.5625C13.65 8.28844 13.6425 8.53125 13.605 9.1875ZM7.5 3.19594C6.73936 3.19723 5.99622 3.39578 5.36449 3.76649C4.73276 4.1372 4.24078 4.66344 3.95073 5.27871C3.66067 5.89399 3.58554 6.57068 3.73485 7.2233C3.88415 7.87591 4.25118 8.47516 4.78956 8.94533C5.32794 9.4155 6.01351 9.73548 6.75964 9.86485C7.50578 9.99422 8.279 9.92716 8.9816 9.67216C9.6842 9.41717 10.2847 8.98566 10.7071 8.43218C11.1295 7.87869 11.355 7.22806 11.355 6.5625C11.356 6.1196 11.2569 5.6809 11.0634 5.27163C10.87 4.86236 10.5859 4.49059 10.2277 4.17772C9.86939 3.86485 9.44396 3.61704 8.97585 3.44855C8.50773 3.28006 8.00617 3.19421 7.5 3.19594ZM7.5 8.74781C7.00604 8.74781 6.52318 8.61965 6.11246 8.37952C5.70175 8.1394 5.38164 7.7981 5.19261 7.39878C5.00358 6.99947 4.95412 6.56008 5.05049 6.13617C5.14686 5.71226 5.38472 5.32287 5.734 5.01725C6.08328 4.71163 6.52829 4.5035 7.01276 4.41918C7.49723 4.33486 7.99939 4.37813 8.45575 4.54353C8.91211 4.70894 9.30217 4.98903 9.5766 5.34841C9.85102 5.70778 9.9975 6.13029 9.9975 6.5625C9.9975 6.84948 9.9329 7.13365 9.80739 7.39878C9.68188 7.66392 9.49791 7.90482 9.266 8.10775C9.03409 8.31067 8.75876 8.47164 8.45575 8.58147C8.15274 8.69129 7.82798 8.74781 7.5 8.74781Z" fill="#1F7CC0"/>
</svg>
