<svg width="12" height="11" viewBox="0 0 12 11" fill="none" xmlns="http://www.w3.org/2000/svg">
<path d="M9.07851 6.62425L8.07487 7.11899C7.95443 7.17832 7.8151 7.20153 7.67816 7.18508C7.54123 7.16862 7.41421 7.1134 7.3165 7.02786L3.96672 4.0968C3.86903 4.01127 3.80597 3.90013 3.78717 3.78033C3.76836 3.66053 3.79484 3.53864 3.86257 3.43323L4.42798 2.55504C4.52976 2.39699 4.56961 2.21413 4.54144 2.03439C4.51327 1.85466 4.41864 1.68793 4.27199 1.55968L2.76773 0.243458C2.67957 0.166275 2.57488 0.105047 2.45967 0.0632742C2.34445 0.0215008 2.22096 0 2.09624 0C1.97152 0 1.84803 0.0215008 1.73281 0.0632742C1.6176 0.105047 1.51291 0.166275 1.42475 0.243458L0.741737 0.840673C0.342332 1.19015 0.0879195 1.64642 0.018952 2.13696C-0.0500156 2.62749 0.0704213 3.12412 0.361112 3.54788L0.703818 4.04766C2.45394 6.59987 4.92418 8.71578 7.8776 10.1924L7.94528 10.2264C8.9542 10.7308 10.2007 10.5839 11.0085 9.87744L11.7218 9.25335C11.81 9.1762 11.8799 9.0846 11.9277 8.98379C11.9754 8.88297 12 8.77492 12 8.66579C12 8.55666 11.9754 8.44861 11.9277 8.34779C11.8799 8.24698 11.81 8.15538 11.7218 8.07823L10.2165 6.76117C10.07 6.63269 9.8794 6.54975 9.67388 6.52502C9.46836 6.5003 9.25925 6.53515 9.07851 6.62425Z" fill="#1F7CC0"/>
</svg>
