<svg width="29" height="29" viewBox="0 0 29 29" fill="none" xmlns="http://www.w3.org/2000/svg">
<path d="M19.9076 18.5051C21.524 16.5482 22.5449 14.0383 22.5449 11.2732C22.5449 5.06231 17.4829 0 11.2725 0C5.06197 0 0 5.06231 0 11.2732C0 17.4841 5.06197 22.5464 11.2725 22.5464C13.9949 22.5464 16.5471 21.568 18.5038 19.9089L27.2666 28.6722C27.4793 28.8849 27.7345 28.97 27.9897 28.97C28.245 28.97 28.5002 28.8849 28.7129 28.6722C29.0957 28.2894 29.0957 27.6087 28.7129 27.2258L19.9076 18.5051ZM11.2299 20.5045C6.12541 20.5045 1.99927 16.378 1.99927 11.2732C1.99927 6.16836 6.12541 2.04194 11.2299 2.04194C16.3344 2.04194 20.4606 6.16836 20.4606 11.2732C20.4606 16.378 16.3344 20.5045 11.2299 20.5045Z" fill="black"/>
</svg>
