<svg width="20" height="22" viewBox="0 0 20 22" fill="none" xmlns="http://www.w3.org/2000/svg">
<path d="M17.5349 6.83721L16.814 20.2791C16.7907 20.7674 16.3721 21.1628 15.8837 21.1628H4.11628C3.62791 21.1628 3.2093 20.7674 3.18605 20.2791L2.46512 6.83721C2.44186 6.32558 2.83721 5.88372 3.34884 5.86047C3.86047 5.83721 4.30233 6.23256 4.32558 6.74419L5 19.3023H15.0233L15.6977 6.74419C15.7209 6.23256 16.1628 5.83721 16.6744 5.86047C17.1628 5.88372 17.5581 6.32558 17.5349 6.83721ZM20 3.72093C20 4.23256 19.5814 4.65116 19.0698 4.65116H0.930233C0.418605 4.65116 0 4.23256 0 3.72093C0 3.2093 0.418605 2.7907 0.930233 2.7907H6.04651V0.697674C6.04651 0.255814 6.34884 0 6.7907 0H13.2093C13.6512 0 13.9535 0.255814 13.9535 0.697674V2.7907H19.0698C19.5814 2.7907 20 3.2093 20 3.72093ZM7.67442 2.7907H12.3256V1.62791H7.67442V2.7907ZM8.06977 17.907C8.53488 17.907 8.88372 17.4651 8.88372 17.0233L8.65116 6.97674C8.65116 6.53488 8.27907 6.16279 7.81395 6.16279C7.37209 6.16279 7 6.53488 7.02326 7L7.25581 17.0698C7.25581 17.5116 7.62791 17.907 8.06977 17.907ZM11.907 17.907C12.3488 17.907 12.7209 17.5349 12.7209 17.093L12.9535 7.04651C12.9535 6.60465 12.6047 6.2093 12.1628 6.2093C11.6977 6.2093 11.3488 6.55814 11.3256 7L11.093 17.0465C11.0698 17.5116 11.4419 17.907 11.907 17.907C11.8837 17.907 11.8837 17.907 11.907 17.907Z" fill="black"/>
</svg>
