<svg width="15" height="14" viewBox="0 0 15 14" fill="none" xmlns="http://www.w3.org/2000/svg">
<path d="M11.0015 7.92856C10.8508 7.86262 9.87125 7.46702 9.72055 7.40109C9.56984 7.33515 9.41914 7.33515 9.26843 7.46702C9.11772 7.59889 8.81631 7.99449 8.6656 8.12636C8.59025 8.25823 8.43954 8.25823 8.28884 8.19229C7.76137 7.99449 7.2339 7.73076 6.78178 7.40109C6.40501 7.07142 6.02825 6.67581 5.72683 6.28021C5.65148 6.14834 5.72683 6.01647 5.80219 5.95054C5.87754 5.8846 5.95289 5.75274 6.1036 5.6868C6.17895 5.62087 6.25431 5.489 6.25431 5.42307C6.32966 5.35713 6.32966 5.22527 6.25431 5.15933C6.17895 5.0934 5.80219 4.30219 5.65148 3.97252C5.57613 3.51098 5.42542 3.51098 5.27472 3.51098H4.89795C4.74724 3.51098 4.52118 3.64285 4.44583 3.70878C3.99371 4.10439 3.76765 4.56593 3.76765 5.0934C3.84301 5.6868 4.06907 6.28021 4.52118 6.80768C5.35007 7.86262 6.40501 8.71976 7.68601 9.24724C8.06278 9.3791 8.36419 9.51097 8.74096 9.57691C9.11772 9.70877 9.49449 9.70877 9.94661 9.64284C10.4741 9.57691 10.9262 9.24724 11.2276 8.85163C11.3783 8.5879 11.3783 8.32416 11.303 8.06042L11.0015 7.92856ZM12.8854 1.92857C9.94661 -0.642856 5.19936 -0.642856 2.26059 1.92857C-0.150706 4.03845 -0.602825 7.26922 1.05494 9.84064L0 13.2033L3.99371 12.2802C5.12401 12.8077 6.32966 13.0714 7.53531 13.0714C11.6797 13.0714 14.9953 10.1703 14.9953 6.54394C15.0706 4.82966 14.2417 3.18131 12.8854 1.92857ZM10.8508 11.1593C9.87125 11.6868 8.74096 12.0165 7.53531 12.0165C6.40501 12.0165 5.35007 11.7527 4.37048 11.2912L4.14442 11.1593L1.80847 11.6868L2.4113 9.70877L2.26059 9.51097C0.452118 6.87361 1.35636 3.57692 4.29513 1.92857C7.2339 0.280219 11.0015 1.13736 12.81 3.64285C14.6185 6.21427 13.7896 9.57691 10.8508 11.1593Z" fill="#1F7CC0"/>
</svg>
